<?xml version="1.0" encoding="utf-8" standalone="no"?>
<!DOCTYPE svg PUBLIC "-//W3C//DTD SVG 1.1//EN"
  "http://www.w3.org/Graphics/SVG/1.1/DTD/svg11.dtd">
<svg xmlns:xlink="http://www.w3.org/1999/xlink" width="460.8pt" height="345.6pt" viewBox="0 0 460.8 345.6" xmlns="http://www.w3.org/2000/svg" version="1.1">
 <metadata>
  <rdf:RDF xmlns:dc="http://purl.org/dc/elements/1.1/" xmlns:cc="http://creativecommons.org/ns#" xmlns:rdf="http://www.w3.org/1999/02/22-rdf-syntax-ns#">
   <cc:Work>
    <dc:type rdf:resource="http://purl.org/dc/dcmitype/StillImage"/>
    <dc:date>2024-12-14T22:45:10.711087</dc:date>
    <dc:format>image/svg+xml</dc:format>
    <dc:creator>
     <cc:Agent>
      <dc:title>Matplotlib v3.9.2, https://matplotlib.org/</dc:title>
     </cc:Agent>
    </dc:creator>
   </cc:Work>
  </rdf:RDF>
 </metadata>
 <defs>
  <style type="text/css">*{stroke-linejoin: round; stroke-linecap: butt}</style>
 </defs>
 <g id="figure_1">
  <g id="patch_1">
   <path d="M 0 345.6 
L 460.8 345.6 
L 460.8 0 
L 0 0 
L 0 345.6 
z
" style="fill: none"/>
  </g>
  <g id="axes_1">
   <g id="patch_2">
    <path d="M 57.6 307.584 
L 414.72 307.584 
L 414.72 41.472 
L 57.6 41.472 
L 57.6 307.584 
z
" style="fill: none"/>
   </g>
   <g id="matplotlib.axis_1">
    <g id="xtick_1">
     <g id="line2d_1">
      <defs>
       <path id="mb8ec6fbab5" d="M 0 0 
L 0 3.5 
" style="stroke: #000000; stroke-width: 0.8"/>
      </defs>
      <g>
       <use xlink:href="#mb8ec6fbab5" x="73.832727" y="307.584" style="stroke: #000000; stroke-width: 0.8"/>
      </g>
     </g>
     <g id="text_1">
      <!-- $\mathdefault{70}$ -->
      <g transform="translate(68.851392 321.502498) scale(0.1 -0.1)">
       <defs>
        <path id="CMR17-37" d="M 2886 3955 
L 2886 4096 
L 1382 4096 
C 634 4096 621 4166 595 4288 
L 480 4288 
L 294 3104 
L 410 3104 
C 429 3226 474 3552 550 3673 
C 589 3724 1062 3724 1171 3724 
L 2579 3724 
L 1869 2670 
C 1395 1961 1069 1003 1069 166 
C 1069 89 1069 -128 1299 -128 
C 1530 -128 1530 89 1530 172 
L 1530 466 
C 1530 1514 1709 2204 2003 2644 
L 2886 3955 
z
" transform="scale(0.015625)"/>
        <path id="CMR17-30" d="M 2688 2038 
C 2688 2430 2682 3099 2413 3613 
C 2176 4063 1798 4224 1466 4224 
C 1158 4224 768 4082 525 3620 
C 269 3137 243 2539 243 2038 
C 243 1671 250 1112 448 623 
C 723 -39 1216 -128 1466 -128 
C 1760 -128 2208 -7 2470 604 
C 2662 1048 2688 1568 2688 2038 
z
M 1466 -26 
C 1056 -26 813 328 723 816 
C 653 1196 653 1749 653 2109 
C 653 2604 653 3015 736 3407 
C 858 3954 1216 4121 1466 4121 
C 1728 4121 2067 3947 2189 3420 
C 2272 3054 2278 2623 2278 2109 
C 2278 1691 2278 1176 2202 797 
C 2067 96 1690 -26 1466 -26 
z
" transform="scale(0.015625)"/>
       </defs>
       <use xlink:href="#CMR17-37" transform="scale(0.996264)"/>
       <use xlink:href="#CMR17-30" transform="translate(45.690477 0) scale(0.996264)"/>
      </g>
     </g>
    </g>
    <g id="xtick_2">
     <g id="line2d_2">
      <g>
       <use xlink:href="#mb8ec6fbab5" x="127.941818" y="307.584" style="stroke: #000000; stroke-width: 0.8"/>
      </g>
     </g>
     <g id="text_2">
      <!-- $\mathdefault{75}$ -->
      <g transform="translate(122.960483 321.502498) scale(0.1 -0.1)">
       <defs>
        <path id="CMR17-35" d="M 730 3750 
C 794 3724 1056 3641 1325 3641 
C 1920 3641 2246 3961 2432 4140 
C 2432 4191 2432 4224 2394 4224 
C 2387 4224 2374 4224 2323 4198 
C 2099 4102 1837 4032 1517 4032 
C 1325 4032 1037 4055 723 4191 
C 653 4224 640 4224 634 4224 
C 602 4224 595 4217 595 4090 
L 595 2231 
C 595 2113 595 2080 659 2080 
C 691 2080 704 2093 736 2139 
C 941 2435 1222 2560 1542 2560 
C 1766 2560 2246 2415 2246 1293 
C 2246 1087 2246 716 2054 422 
C 1894 159 1645 25 1370 25 
C 947 25 518 319 403 812 
C 429 806 480 793 506 793 
C 589 793 749 838 749 1036 
C 749 1209 627 1280 506 1280 
C 358 1280 262 1190 262 1011 
C 262 454 704 -128 1382 -128 
C 2042 -128 2669 441 2669 1267 
C 2669 2054 2170 2662 1549 2662 
C 1222 2662 947 2540 730 2304 
L 730 3750 
z
" transform="scale(0.015625)"/>
       </defs>
       <use xlink:href="#CMR17-37" transform="scale(0.996264)"/>
       <use xlink:href="#CMR17-35" transform="translate(45.690477 0) scale(0.996264)"/>
      </g>
     </g>
    </g>
    <g id="xtick_3">
     <g id="line2d_3">
      <g>
       <use xlink:href="#mb8ec6fbab5" x="182.050909" y="307.584" style="stroke: #000000; stroke-width: 0.8"/>
      </g>
     </g>
     <g id="text_3">
      <!-- $\mathdefault{80}$ -->
      <g transform="translate(177.069574 321.502498) scale(0.1 -0.1)">
       <defs>
        <path id="CMR17-38" d="M 1741 2289 
C 2144 2494 2554 2803 2554 3298 
C 2554 3884 1990 4224 1472 4224 
C 890 4224 378 3800 378 3215 
C 378 3054 416 2777 666 2533 
C 730 2469 998 2276 1171 2154 
C 883 2006 211 1652 211 945 
C 211 282 838 -128 1459 -128 
C 2144 -128 2720 366 2720 1022 
C 2720 1607 2330 1877 2074 2051 
L 1741 2289 
z
M 902 2855 
C 851 2887 595 3086 595 3388 
C 595 3781 998 4076 1459 4076 
C 1965 4076 2336 3716 2336 3298 
C 2336 2700 1670 2359 1638 2359 
C 1632 2359 1626 2359 1574 2398 
L 902 2855 
z
M 2080 1536 
C 2176 1466 2483 1253 2483 861 
C 2483 385 2010 25 1472 25 
C 890 25 448 443 448 951 
C 448 1459 838 1884 1280 2083 
L 2080 1536 
z
" transform="scale(0.015625)"/>
       </defs>
       <use xlink:href="#CMR17-38" transform="scale(0.996264)"/>
       <use xlink:href="#CMR17-30" transform="translate(45.690477 0) scale(0.996264)"/>
      </g>
     </g>
    </g>
    <g id="xtick_4">
     <g id="line2d_4">
      <g>
       <use xlink:href="#mb8ec6fbab5" x="236.16" y="307.584" style="stroke: #000000; stroke-width: 0.8"/>
      </g>
     </g>
     <g id="text_4">
      <!-- $\mathdefault{85}$ -->
      <g transform="translate(231.178665 321.502498) scale(0.1 -0.1)">
       <use xlink:href="#CMR17-38" transform="scale(0.996264)"/>
       <use xlink:href="#CMR17-35" transform="translate(45.690477 0) scale(0.996264)"/>
      </g>
     </g>
    </g>
    <g id="xtick_5">
     <g id="line2d_5">
      <g>
       <use xlink:href="#mb8ec6fbab5" x="290.269091" y="307.584" style="stroke: #000000; stroke-width: 0.8"/>
      </g>
     </g>
     <g id="text_5">
      <!-- $\mathdefault{90}$ -->
      <g transform="translate(285.287756 321.502498) scale(0.1 -0.1)">
       <defs>
        <path id="CMR17-39" d="M 2253 1871 
C 2253 448 1670 25 1190 25 
C 1043 25 685 43 538 281 
C 704 256 826 345 826 505 
C 826 678 685 736 595 736 
C 538 736 365 710 365 492 
C 365 68 742 -128 1203 -128 
C 1939 -128 2688 665 2688 2090 
C 2688 3857 1971 4224 1485 4224 
C 851 4224 243 3664 243 2800 
C 243 2000 762 1408 1414 1408 
C 1952 1408 2189 1910 2253 2122 
L 2253 1871 
z
M 1427 1510 
C 1254 1510 1011 1542 813 1929 
C 678 2181 678 2477 678 2793 
C 678 3174 678 3438 858 3722 
C 947 3857 1114 4076 1485 4076 
C 2240 4076 2240 2909 2240 2651 
C 2240 2193 2035 1510 1427 1510 
z
" transform="scale(0.015625)"/>
       </defs>
       <use xlink:href="#CMR17-39" transform="scale(0.996264)"/>
       <use xlink:href="#CMR17-30" transform="translate(45.690477 0) scale(0.996264)"/>
      </g>
     </g>
    </g>
    <g id="xtick_6">
     <g id="line2d_6">
      <g>
       <use xlink:href="#mb8ec6fbab5" x="344.378182" y="307.584" style="stroke: #000000; stroke-width: 0.8"/>
      </g>
     </g>
     <g id="text_6">
      <!-- $\mathdefault{95}$ -->
      <g transform="translate(339.396847 321.502498) scale(0.1 -0.1)">
       <use xlink:href="#CMR17-39" transform="scale(0.996264)"/>
       <use xlink:href="#CMR17-35" transform="translate(45.690477 0) scale(0.996264)"/>
      </g>
     </g>
    </g>
    <g id="xtick_7">
     <g id="line2d_7">
      <g>
       <use xlink:href="#mb8ec6fbab5" x="398.487273" y="307.584" style="stroke: #000000; stroke-width: 0.8"/>
      </g>
     </g>
     <g id="text_7">
      <!-- $\mathdefault{100}$ -->
      <g transform="translate(391.01527 321.502498) scale(0.1 -0.1)">
       <defs>
        <path id="CMR17-31" d="M 1702 4083 
C 1702 4217 1696 4224 1606 4224 
C 1357 3927 979 3833 621 3820 
C 602 3820 570 3820 563 3808 
C 557 3795 557 3782 557 3648 
C 755 3648 1088 3686 1344 3839 
L 1344 467 
C 1344 243 1331 166 781 166 
L 589 166 
L 589 0 
C 896 6 1216 12 1523 12 
C 1830 12 2150 6 2458 0 
L 2458 166 
L 2266 166 
C 1715 166 1702 236 1702 467 
L 1702 4083 
z
" transform="scale(0.015625)"/>
       </defs>
       <use xlink:href="#CMR17-31" transform="scale(0.996264)"/>
       <use xlink:href="#CMR17-30" transform="translate(45.690477 0) scale(0.996264)"/>
       <use xlink:href="#CMR17-30" transform="translate(91.380954 0) scale(0.996264)"/>
      </g>
     </g>
    </g>
    <g id="text_8">
     <!-- Minimum Support -->
     <g transform="translate(195.880384 334.358175) scale(0.1 -0.1)">
      <defs>
       <path id="CMR17-4d" d="M 1338 4249 
C 1299 4345 1293 4352 1158 4352 
L 339 4352 
L 339 4185 
C 781 4185 851 4185 851 3898 
L 851 624 
C 851 465 851 166 339 166 
L 339 0 
C 486 12 755 12 915 12 
C 1075 12 1344 12 1491 0 
L 1491 166 
C 979 166 979 465 979 624 
L 979 4159 
L 986 4159 
L 2490 102 
C 2515 38 2528 0 2579 0 
C 2630 0 2643 38 2669 102 
L 4186 4191 
L 4192 4191 
L 4192 453 
C 4192 166 4122 166 3680 166 
L 3680 0 
C 3853 12 4198 12 4384 12 
C 4570 12 4922 12 5094 0 
L 5094 166 
C 4653 166 4582 166 4582 453 
L 4582 3898 
C 4582 4185 4653 4185 5094 4185 
L 5094 4352 
L 4282 4352 
C 4147 4352 4141 4345 4102 4249 
L 2720 516 
L 1338 4249 
z
" transform="scale(0.015625)"/>
       <path id="CMR17-69" d="M 992 3961 
C 992 4102 877 4224 730 4224 
C 589 4224 467 4108 467 3961 
C 467 3820 582 3699 730 3699 
C 870 3699 992 3814 992 3961 
z
M 243 2745 
L 243 2579 
C 602 2579 653 2540 653 2231 
L 653 443 
C 653 198 627 166 218 166 
L 218 0 
C 371 12 646 12 806 12 
C 960 12 1222 12 1370 0 
L 1370 166 
C 992 166 979 205 979 436 
L 979 2816 
L 243 2745 
z
" transform="scale(0.015625)"/>
       <path id="CMR17-6e" d="M 2656 1954 
C 2656 2282 2592 2816 1837 2816 
C 1331 2816 1069 2424 973 2166 
L 966 2166 
L 966 2816 
L 211 2745 
L 211 2578 
C 589 2578 646 2540 646 2231 
L 646 443 
C 646 198 621 166 211 166 
L 211 0 
C 365 12 646 12 813 12 
C 979 12 1267 12 1421 0 
L 1421 166 
C 1011 166 986 192 986 443 
L 986 1678 
C 986 2269 1344 2713 1792 2713 
C 2266 2713 2317 2289 2317 1980 
L 2317 443 
C 2317 198 2291 166 1882 166 
L 1882 0 
C 2035 12 2317 12 2483 12 
C 2650 12 2938 12 3091 0 
L 3091 166 
C 2682 166 2656 192 2656 443 
L 2656 1954 
z
" transform="scale(0.015625)"/>
       <path id="CMR17-6d" d="M 4326 1954 
C 4326 2276 4269 2816 3507 2816 
C 3072 2816 2771 2520 2656 2173 
L 2650 2173 
C 2573 2700 2195 2816 1837 2816 
C 1331 2816 1069 2424 973 2166 
L 966 2166 
L 966 2816 
L 211 2745 
L 211 2578 
C 589 2578 646 2540 646 2231 
L 646 443 
C 646 198 621 166 211 166 
L 211 0 
C 365 12 646 12 813 12 
C 979 12 1267 12 1421 0 
L 1421 166 
C 1011 166 986 192 986 443 
L 986 1678 
C 986 2269 1344 2713 1792 2713 
C 2266 2713 2317 2289 2317 1980 
L 2317 443 
C 2317 198 2291 166 1882 166 
L 1882 0 
C 2035 12 2317 12 2483 12 
C 2650 12 2938 12 3091 0 
L 3091 166 
C 2682 166 2656 192 2656 443 
L 2656 1678 
C 2656 2269 3014 2713 3462 2713 
C 3936 2713 3987 2289 3987 1980 
L 3987 443 
C 3987 198 3962 166 3552 166 
L 3552 0 
C 3706 12 3987 12 4154 12 
C 4320 12 4608 12 4762 0 
L 4762 166 
C 4352 166 4326 192 4326 443 
L 4326 1954 
z
" transform="scale(0.015625)"/>
       <path id="CMR17-75" d="M 1882 2745 
L 1882 2579 
C 2259 2579 2317 2540 2317 2229 
L 2317 1053 
C 2317 510 2029 38 1555 38 
C 1030 38 986 355 986 691 
L 986 2816 
L 211 2745 
L 211 2579 
C 467 2579 640 2579 646 2320 
L 646 1079 
C 646 646 646 368 813 187 
C 896 103 1056 -64 1517 -64 
C 2061 -64 2272 400 2323 536 
L 2330 536 
L 2330 -64 
L 3091 -13 
L 3091 154 
C 2714 154 2656 193 2656 503 
L 2656 2816 
L 1882 2745 
z
" transform="scale(0.015625)"/>
       <path id="CMR17-53" d="M 2803 4351 
C 2803 4467 2797 4473 2758 4473 
C 2720 4473 2707 4447 2682 4390 
L 2490 3965 
C 2246 4320 1875 4480 1472 4480 
C 819 4480 294 3958 294 3301 
C 294 3101 339 2817 557 2546 
C 794 2250 1018 2198 1530 2063 
C 1722 2011 2042 1927 2106 1901 
C 2470 1747 2662 1360 2662 999 
C 2662 534 2336 38 1779 38 
C 1094 38 454 425 410 1328 
C 403 1431 397 1437 352 1437 
C 301 1437 294 1431 294 1302 
L 294 0 
C 294 -116 301 -122 339 -122 
C 384 -122 397 -90 486 109 
C 493 128 493 141 614 386 
C 934 -39 1472 -128 1779 -128 
C 2477 -128 2970 457 2970 1141 
C 2970 1476 2848 1734 2778 1850 
C 2509 2263 2221 2340 1914 2417 
C 1869 2437 1856 2437 1498 2527 
C 1152 2617 1005 2662 845 2836 
C 666 3036 602 3243 602 3449 
C 602 3868 934 4326 1478 4326 
C 2157 4326 2579 3842 2675 3036 
C 2694 2920 2701 2914 2746 2914 
C 2803 2914 2803 2933 2803 3043 
L 2803 4351 
z
" transform="scale(0.015625)"/>
       <path id="CMR17-70" d="M 1408 -1114 
C 998 -1114 973 -1088 973 -834 
L 973 380 
C 1158 109 1427 -64 1766 -64 
C 2406 -64 3053 503 3053 1382 
C 3053 2196 2496 2816 1837 2816 
C 1453 2816 1139 2603 960 2345 
L 960 2816 
L 198 2745 
L 198 2577 
C 576 2577 634 2539 634 2228 
L 634 -834 
C 634 -1081 608 -1114 198 -1114 
L 198 -1280 
C 352 -1268 634 -1268 800 -1268 
C 966 -1268 1254 -1268 1408 -1280 
L 1408 -1114 
z
M 973 2015 
C 973 2106 973 2241 1222 2481 
C 1254 2506 1472 2700 1792 2700 
C 2259 2700 2643 2112 2643 1376 
C 2643 639 2234 38 1728 38 
C 1498 38 1248 148 1056 451 
C 973 594 973 632 973 736 
L 973 2015 
z
" transform="scale(0.015625)"/>
       <path id="CMR17-6f" d="M 2758 1356 
C 2758 2176 2163 2816 1466 2816 
C 768 2816 173 2176 173 1356 
C 173 550 768 -64 1466 -64 
C 2163 -64 2758 550 2758 1356 
z
M 1466 51 
C 1165 51 909 230 762 480 
C 602 768 582 1126 582 1408 
C 582 1676 595 2009 762 2297 
C 890 2508 1139 2713 1466 2713 
C 1754 2713 1997 2553 2150 2329 
C 2349 2028 2349 1606 2349 1408 
C 2349 1158 2336 774 2163 467 
C 1984 172 1709 51 1466 51 
z
" transform="scale(0.015625)"/>
       <path id="CMR17-72" d="M 960 1517 
C 960 2134 1222 2713 1702 2713 
C 1747 2713 1792 2707 1837 2687 
C 1837 2687 1696 2642 1696 2475 
C 1696 2321 1818 2257 1914 2257 
C 1990 2257 2131 2302 2131 2482 
C 2131 2687 1926 2816 1709 2816 
C 1222 2816 1011 2340 947 2115 
L 941 2115 
L 941 2816 
L 198 2745 
L 198 2578 
C 576 2578 634 2540 634 2231 
L 634 443 
C 634 198 608 166 198 166 
L 198 0 
C 352 12 646 12 813 12 
C 998 12 1325 12 1498 0 
L 1498 166 
C 1037 166 960 166 960 455 
L 960 1517 
z
" transform="scale(0.015625)"/>
       <path id="CMR17-74" d="M 966 2585 
L 1862 2585 
L 1862 2752 
L 966 2752 
L 966 3968 
L 851 3968 
C 838 3292 614 2700 70 2687 
L 70 2585 
L 627 2585 
L 627 778 
C 627 655 627 -64 1370 -64 
C 1747 -64 1965 308 1965 784 
L 1965 1151 
L 1850 1151 
L 1850 790 
C 1850 347 1677 51 1408 51 
C 1222 51 966 179 966 765 
L 966 2585 
z
" transform="scale(0.015625)"/>
      </defs>
      <use xlink:href="#CMR17-4d" transform="scale(0.996264)"/>
      <use xlink:href="#CMR17-69" transform="translate(84.686941 0) scale(0.996264)"/>
      <use xlink:href="#CMR17-6e" transform="translate(109.557999 0) scale(0.996264)"/>
      <use xlink:href="#CMR17-69" transform="translate(160.453369 0) scale(0.996264)"/>
      <use xlink:href="#CMR17-6d" transform="translate(185.324427 0) scale(0.996264)"/>
      <use xlink:href="#CMR17-75" transform="translate(259.641563 0) scale(0.996264)"/>
      <use xlink:href="#CMR17-6d" transform="translate(310.536933 0) scale(0.996264)"/>
      <use xlink:href="#CMR17-53" transform="translate(417.532489 0) scale(0.996264)"/>
      <use xlink:href="#CMR17-75" transform="translate(468.427859 0) scale(0.996264)"/>
      <use xlink:href="#CMR17-70" transform="translate(519.323229 0) scale(0.996264)"/>
      <use xlink:href="#CMR17-70" transform="translate(570.218599 0) scale(0.996264)"/>
      <use xlink:href="#CMR17-6f" transform="translate(623.716407 0) scale(0.996264)"/>
      <use xlink:href="#CMR17-72" transform="translate(669.406884 0) scale(0.996264)"/>
      <use xlink:href="#CMR17-74" transform="translate(704.687652 0) scale(0.996264)"/>
     </g>
    </g>
   </g>
   <g id="matplotlib.axis_2">
    <g id="ytick_1">
     <g id="line2d_8">
      <defs>
       <path id="mb05bef03f8" d="M 0 0 
L -3.5 0 
" style="stroke: #000000; stroke-width: 0.8"/>
      </defs>
      <g>
       <use xlink:href="#mb05bef03f8" x="57.6" y="262.949053" style="stroke: #000000; stroke-width: 0.8"/>
      </g>
     </g>
     <g id="text_9">
      <!-- $\mathdefault{7000}$ -->
      <g transform="translate(30.674659 266.408302) scale(0.1 -0.1)">
       <use xlink:href="#CMR17-37" transform="scale(0.996264)"/>
       <use xlink:href="#CMR17-30" transform="translate(45.690477 0) scale(0.996264)"/>
       <use xlink:href="#CMR17-30" transform="translate(91.380954 0) scale(0.996264)"/>
       <use xlink:href="#CMR17-30" transform="translate(137.071431 0) scale(0.996264)"/>
      </g>
     </g>
    </g>
    <g id="ytick_2">
     <g id="line2d_9">
      <g>
       <use xlink:href="#mb05bef03f8" x="57.6" y="204.001684" style="stroke: #000000; stroke-width: 0.8"/>
      </g>
     </g>
     <g id="text_10">
      <!-- $\mathdefault{8000}$ -->
      <g transform="translate(30.674659 207.460933) scale(0.1 -0.1)">
       <use xlink:href="#CMR17-38" transform="scale(0.996264)"/>
       <use xlink:href="#CMR17-30" transform="translate(45.690477 0) scale(0.996264)"/>
       <use xlink:href="#CMR17-30" transform="translate(91.380954 0) scale(0.996264)"/>
       <use xlink:href="#CMR17-30" transform="translate(137.071431 0) scale(0.996264)"/>
      </g>
     </g>
    </g>
    <g id="ytick_3">
     <g id="line2d_10">
      <g>
       <use xlink:href="#mb05bef03f8" x="57.6" y="145.054316" style="stroke: #000000; stroke-width: 0.8"/>
      </g>
     </g>
     <g id="text_11">
      <!-- $\mathdefault{9000}$ -->
      <g transform="translate(30.674659 148.513565) scale(0.1 -0.1)">
       <use xlink:href="#CMR17-39" transform="scale(0.996264)"/>
       <use xlink:href="#CMR17-30" transform="translate(45.690477 0) scale(0.996264)"/>
       <use xlink:href="#CMR17-30" transform="translate(91.380954 0) scale(0.996264)"/>
       <use xlink:href="#CMR17-30" transform="translate(137.071431 0) scale(0.996264)"/>
      </g>
     </g>
    </g>
    <g id="ytick_4">
     <g id="line2d_11">
      <g>
       <use xlink:href="#mb05bef03f8" x="57.6" y="86.106947" style="stroke: #000000; stroke-width: 0.8"/>
      </g>
     </g>
     <g id="text_12">
      <!-- $\mathdefault{10000}$ -->
      <g transform="translate(25.693324 89.566197) scale(0.1 -0.1)">
       <use xlink:href="#CMR17-31" transform="scale(0.996264)"/>
       <use xlink:href="#CMR17-30" transform="translate(45.690477 0) scale(0.996264)"/>
       <use xlink:href="#CMR17-30" transform="translate(91.380954 0) scale(0.996264)"/>
       <use xlink:href="#CMR17-30" transform="translate(137.071431 0) scale(0.996264)"/>
       <use xlink:href="#CMR17-30" transform="translate(182.761908 0) scale(0.996264)"/>
      </g>
     </g>
    </g>
    <g id="text_13">
     <!-- Number of Patterns -->
     <g transform="translate(19.756145 217.962426) rotate(-90) scale(0.1 -0.1)">
      <defs>
       <path id="CMR17-4e" d="M 1312 4275 
C 1267 4345 1261 4352 1139 4352 
L 326 4352 
L 326 4185 
L 448 4185 
C 704 4185 819 4153 838 4147 
L 838 624 
C 838 465 838 166 326 166 
L 326 0 
C 474 12 742 12 902 12 
C 1062 12 1331 12 1478 0 
L 1478 166 
C 966 166 966 465 966 624 
L 966 4057 
C 1011 4019 1011 4007 1056 3943 
L 3430 76 
C 3475 0 3494 0 3526 0 
C 3590 0 3590 19 3590 140 
L 3590 3726 
C 3590 3885 3590 4185 4102 4185 
L 4102 4352 
C 3955 4339 3686 4339 3526 4339 
C 3366 4339 3098 4339 2950 4352 
L 2950 4185 
C 3462 4185 3462 3885 3462 3726 
L 3462 777 
L 1312 4275 
z
" transform="scale(0.015625)"/>
       <path id="CMR17-62" d="M 960 4416 
L 198 4345 
L 198 4179 
C 576 4179 634 4141 634 3843 
L 634 -13 
L 749 -13 
L 934 445 
C 1120 141 1395 -64 1766 -64 
C 2406 -64 3053 503 3053 1382 
C 3053 2209 2477 2816 1830 2816 
C 1434 2816 1152 2603 960 2351 
L 960 4416 
z
M 973 2022 
C 973 2138 973 2157 1062 2293 
C 1312 2681 1670 2713 1792 2713 
C 1984 2713 2643 2610 2643 1388 
C 2643 109 1888 38 1734 38 
C 1536 38 1248 115 1043 490 
C 973 613 973 626 973 742 
L 973 2022 
z
" transform="scale(0.015625)"/>
       <path id="CMR17-65" d="M 2438 1503 
C 2464 1529 2464 1542 2464 1606 
C 2464 2251 2118 2816 1389 2816 
C 710 2816 173 2175 173 1394 
C 173 554 781 -64 1459 -64 
C 2176 -64 2458 619 2458 755 
C 2458 800 2419 800 2406 800 
C 2362 800 2355 787 2330 709 
C 2189 270 1837 51 1504 51 
C 1229 51 954 206 781 490 
C 582 819 582 1200 582 1503 
L 2438 1503 
z
M 589 1600 
C 634 2511 1126 2713 1382 2713 
C 1818 2713 2112 2308 2118 1600 
L 589 1600 
z
" transform="scale(0.015625)"/>
       <path id="CMR17-66" d="M 979 2585 
L 1709 2585 
L 1709 2752 
L 966 2752 
L 966 3539 
C 966 4076 1235 4377 1510 4377 
C 1594 4377 1690 4363 1754 4339 
C 1702 4326 1568 4281 1568 4121 
C 1568 3955 1696 3904 1786 3904 
C 1875 3904 2003 3955 2003 4121 
C 2003 4353 1773 4480 1517 4480 
C 1152 4480 653 4211 653 3526 
L 653 2752 
L 141 2752 
L 141 2585 
L 653 2585 
L 653 441 
C 653 198 627 166 218 166 
L 218 0 
C 371 12 666 12 832 12 
C 1018 12 1344 12 1517 0 
L 1517 166 
C 1056 166 979 166 979 454 
L 979 2585 
z
" transform="scale(0.015625)"/>
       <path id="CMR17-50" d="M 1267 2048 
L 2291 2048 
C 3117 2048 3718 2583 3718 3187 
C 3718 3791 3130 4352 2291 4352 
L 333 4352 
L 333 4185 
C 774 4185 845 4185 845 3899 
L 845 453 
C 845 166 774 166 333 166 
L 333 0 
C 518 12 858 12 1056 12 
C 1254 12 1594 12 1779 0 
L 1779 166 
C 1338 166 1267 166 1267 453 
L 1267 2048 
z
M 1254 2182 
L 1254 3937 
C 1254 4153 1267 4185 1523 4185 
L 2170 4185 
C 2995 4185 3232 3715 3232 3187 
C 3232 2608 2950 2182 2170 2182 
L 1254 2182 
z
" transform="scale(0.015625)"/>
       <path id="CMR17-61" d="M 2304 1656 
C 2304 2048 2304 2275 2035 2534 
C 1798 2751 1523 2816 1306 2816 
C 800 2816 435 2408 435 1977 
C 435 1740 627 1728 666 1728 
C 749 1728 896 1779 896 1958 
C 896 2118 774 2188 666 2188 
C 640 2188 608 2182 589 2176 
C 723 2594 1069 2713 1293 2713 
C 1613 2713 1965 2421 1965 1875 
L 1965 1632 
C 1587 1619 1133 1568 774 1373 
C 371 1147 256 822 256 576 
C 256 77 832 -64 1171 -64 
C 1523 -64 1850 135 1990 505 
C 2003 219 2182 -39 2464 -39 
C 2598 -39 2938 51 2938 563 
L 2938 926 
L 2822 926 
L 2822 557 
C 2822 161 2650 109 2566 109 
C 2304 109 2304 446 2304 732 
L 2304 1656 
z
M 1965 887 
C 1965 323 1568 38 1216 38 
C 896 38 646 278 646 576 
C 646 771 730 1114 1101 1322 
C 1408 1497 1760 1523 1965 1536 
L 1965 887 
z
" transform="scale(0.015625)"/>
       <path id="CMR17-73" d="M 1978 2688 
C 1978 2803 1971 2809 1933 2809 
C 1907 2809 1901 2803 1824 2707 
C 1805 2681 1747 2617 1728 2592 
C 1523 2809 1235 2816 1126 2816 
C 416 2816 160 2444 160 2073 
C 160 1497 813 1363 998 1324 
C 1402 1241 1542 1216 1677 1100 
C 1760 1024 1901 883 1901 652 
C 1901 384 1747 38 1158 38 
C 602 38 403 460 288 1024 
C 269 1113 269 1120 218 1120 
C 166 1120 160 1113 160 985 
L 160 64 
C 160 -52 166 -58 205 -58 
C 237 -58 243 -52 275 0 
C 314 57 410 211 448 275 
C 576 102 800 -64 1158 -64 
C 1792 -64 2131 281 2131 780 
C 2131 1107 1958 1280 1875 1356 
C 1683 1555 1459 1600 1190 1651 
C 838 1728 390 1817 390 2208 
C 390 2374 480 2726 1126 2726 
C 1811 2726 1850 2086 1862 1881 
C 1869 1849 1901 1843 1920 1843 
C 1978 1843 1978 1862 1978 1971 
L 1978 2688 
z
" transform="scale(0.015625)"/>
      </defs>
      <use xlink:href="#CMR17-4e" transform="scale(0.996264)"/>
      <use xlink:href="#CMR17-75" transform="translate(69.07243 0) scale(0.996264)"/>
      <use xlink:href="#CMR17-6d" transform="translate(119.9678 0) scale(0.996264)"/>
      <use xlink:href="#CMR17-62" transform="translate(194.284936 0) scale(0.996264)"/>
      <use xlink:href="#CMR17-65" transform="translate(247.782744 0) scale(0.996264)"/>
      <use xlink:href="#CMR17-72" transform="translate(288.268404 0) scale(0.996264)"/>
      <use xlink:href="#CMR17-6f" transform="translate(353.625139 0) scale(0.996264)"/>
      <use xlink:href="#CMR17-66" transform="translate(399.315616 0) scale(0.996264)"/>
      <use xlink:href="#CMR17-50" transform="translate(456.865095 0) scale(0.996264)"/>
      <use xlink:href="#CMR17-61" transform="translate(516.848941 0) scale(0.996264)"/>
      <use xlink:href="#CMR17-74" transform="translate(562.539418 0) scale(0.996264)"/>
      <use xlink:href="#CMR17-74" transform="translate(597.820186 0) scale(0.996264)"/>
      <use xlink:href="#CMR17-65" transform="translate(633.100954 0) scale(0.996264)"/>
      <use xlink:href="#CMR17-72" transform="translate(673.586614 0) scale(0.996264)"/>
      <use xlink:href="#CMR17-6e" transform="translate(708.867382 0) scale(0.996264)"/>
      <use xlink:href="#CMR17-73" transform="translate(759.762752 0) scale(0.996264)"/>
     </g>
    </g>
   </g>
   <g id="line2d_12">
    <path d="M 398.487273 295.488 
L 290.269091 234.713263 
L 182.050909 155.311158 
L 73.832727 53.568 
" clip-path="url(#p30b217193f)" style="fill: none; stroke: #1f77b4; stroke-width: 1.5; stroke-linecap: square"/>
   </g>
   <g id="line2d_13">
    <path d="M 398.487273 295.488 
L 290.269091 234.713263 
L 182.050909 155.311158 
L 73.832727 53.568 
" clip-path="url(#p30b217193f)" style="fill: none; stroke: #ff7f0e; stroke-width: 1.5; stroke-linecap: square"/>
   </g>
   <g id="line2d_14">
    <path d="M 398.487273 295.488 
L 290.269091 234.713263 
L 182.050909 155.311158 
L 73.832727 53.568 
" clip-path="url(#p30b217193f)" style="fill: none; stroke: #2ca02c; stroke-width: 1.5; stroke-linecap: square"/>
   </g>
   <g id="line2d_15">
    <path d="M 398.487273 295.488 
L 290.269091 234.713263 
L 182.050909 155.311158 
L 73.832727 53.568 
" clip-path="url(#p30b217193f)" style="fill: none; stroke: #d62728; stroke-width: 1.5; stroke-linecap: square"/>
   </g>
   <g id="line2d_16">
    <path d="M 398.487273 295.488 
L 290.269091 234.713263 
L 182.050909 155.311158 
L 73.832727 53.568 
" clip-path="url(#p30b217193f)" style="fill: none; stroke: #9467bd; stroke-width: 1.5; stroke-linecap: square"/>
   </g>
   <g id="line2d_17">
    <path d="M 398.487273 295.488 
L 290.269091 234.713263 
L 182.050909 155.311158 
L 73.832727 53.568 
" clip-path="url(#p30b217193f)" style="fill: none; stroke: #8c564b; stroke-width: 1.5; stroke-linecap: square"/>
   </g>
   <g id="patch_3">
    <path d="M 57.6 307.584 
L 57.6 41.472 
" style="fill: none; stroke: #000000; stroke-width: 0.8; stroke-linejoin: miter; stroke-linecap: square"/>
   </g>
   <g id="patch_4">
    <path d="M 414.72 307.584 
L 414.72 41.472 
" style="fill: none; stroke: #000000; stroke-width: 0.8; stroke-linejoin: miter; stroke-linecap: square"/>
   </g>
   <g id="patch_5">
    <path d="M 57.6 307.584 
L 414.72 307.584 
" style="fill: none; stroke: #000000; stroke-width: 0.8; stroke-linejoin: miter; stroke-linecap: square"/>
   </g>
   <g id="patch_6">
    <path d="M 57.6 41.472 
L 414.72 41.472 
" style="fill: none; stroke: #000000; stroke-width: 0.8; stroke-linejoin: miter; stroke-linecap: square"/>
   </g>
   <g id="text_14">
    <!-- Pattern Count Comparison for Transactional_retail.csv -->
    <g transform="translate(95.842099 35.472) scale(0.12 -0.12)">
     <defs>
      <path id="CMR17-43" d="M 3974 4351 
C 3974 4467 3968 4473 3930 4473 
C 3904 4473 3898 4467 3853 4390 
L 3571 3849 
C 3258 4249 2874 4480 2381 4480 
C 1286 4480 294 3507 294 2179 
C 294 837 1286 -128 2387 -128 
C 3366 -128 3974 741 3974 1482 
C 3974 1547 3974 1573 3917 1573 
C 3866 1573 3866 1553 3859 1495 
C 3808 592 3168 38 2477 38 
C 1824 38 781 502 781 2179 
C 781 3862 1843 4313 2464 4313 
C 3187 4313 3712 3681 3834 2785 
C 3846 2707 3846 2695 3904 2695 
C 3974 2695 3974 2707 3974 2824 
L 3974 4351 
z
" transform="scale(0.015625)"/>
      <path id="CMR17-54" d="M 3981 4332 
L 288 4332 
L 179 2924 
L 294 2924 
C 378 3981 467 4166 1453 4166 
C 1568 4166 1754 4166 1805 4159 
C 1926 4140 1926 4064 1926 3917 
L 1926 465 
C 1926 236 1907 166 1376 166 
L 1197 166 
L 1197 0 
C 1504 6 1824 12 2138 12 
C 2451 12 2771 6 3078 0 
L 3078 166 
L 2899 166 
C 2368 166 2349 236 2349 465 
L 2349 3917 
C 2349 4057 2349 4134 2464 4159 
C 2515 4166 2701 4166 2816 4166 
C 3795 4166 3891 3981 3974 2924 
L 4090 2924 
L 3981 4332 
z
" transform="scale(0.015625)"/>
      <path id="CMR17-63" d="M 2234 2240 
C 2112 2240 1933 2240 1933 2015 
C 1933 1836 2080 1785 2163 1785 
C 2208 1785 2394 1804 2394 2028 
C 2394 2476 1958 2816 1466 2816 
C 787 2816 211 2201 211 1379 
C 211 521 813 -64 1466 -64 
C 2259 -64 2458 676 2458 747 
C 2458 773 2451 792 2406 792 
C 2362 792 2355 786 2330 702 
C 2163 180 1798 51 1523 51 
C 1114 51 621 431 621 1385 
C 621 2358 1094 2700 1472 2700 
C 1722 2700 2093 2582 2234 2240 
z
" transform="scale(0.015625)"/>
      <path id="CMR17-6c" d="M 979 4416 
L 218 4345 
L 218 4179 
C 595 4179 653 4141 653 3835 
L 653 439 
C 653 198 627 166 218 166 
L 218 0 
C 371 12 653 12 813 12 
C 979 12 1261 12 1414 0 
L 1414 166 
C 1005 166 979 191 979 439 
L 979 4416 
z
" transform="scale(0.015625)"/>
      <path id="CMR17-2e" d="M 1062 262 
C 1062 422 934 524 800 524 
C 672 524 538 422 538 262 
C 538 102 666 0 800 0 
C 928 0 1062 102 1062 262 
z
" transform="scale(0.015625)"/>
      <path id="CMR17-76" d="M 2502 2173 
C 2560 2315 2662 2572 3034 2585 
L 3034 2752 
C 2912 2745 2752 2739 2630 2739 
C 2496 2739 2285 2739 2157 2752 
L 2157 2585 
C 2317 2572 2406 2495 2406 2328 
C 2406 2270 2406 2257 2368 2167 
L 1664 379 
L 902 2308 
C 864 2392 864 2405 864 2431 
C 864 2585 1075 2585 1171 2585 
L 1171 2752 
C 1018 2739 736 2739 576 2739 
C 403 2739 205 2739 64 2752 
L 64 2585 
C 307 2585 442 2585 518 2386 
L 1446 44 
C 1485 -52 1491 -64 1549 -64 
C 1606 -64 1613 -52 1651 44 
L 2502 2173 
z
" transform="scale(0.015625)"/>
     </defs>
     <use xlink:href="#CMR17-50" transform="scale(0.996264)"/>
     <use xlink:href="#CMR17-61" transform="translate(59.983847 0) scale(0.996264)"/>
     <use xlink:href="#CMR17-74" transform="translate(105.674324 0) scale(0.996264)"/>
     <use xlink:href="#CMR17-74" transform="translate(140.955092 0) scale(0.996264)"/>
     <use xlink:href="#CMR17-65" transform="translate(176.235859 0) scale(0.996264)"/>
     <use xlink:href="#CMR17-72" transform="translate(216.72152 0) scale(0.996264)"/>
     <use xlink:href="#CMR17-6e" transform="translate(252.002288 0) scale(0.996264)"/>
     <use xlink:href="#CMR17-43" transform="translate(332.973624 0) scale(0.996264)"/>
     <use xlink:href="#CMR17-6f" transform="translate(399.483504 0) scale(0.996264)"/>
     <use xlink:href="#CMR17-75" transform="translate(445.173981 0) scale(0.996264)"/>
     <use xlink:href="#CMR17-6e" transform="translate(496.069351 0) scale(0.996264)"/>
     <use xlink:href="#CMR17-74" transform="translate(544.362267 0) scale(0.996264)"/>
     <use xlink:href="#CMR17-43" transform="translate(609.719001 0) scale(0.996264)"/>
     <use xlink:href="#CMR17-6f" transform="translate(676.228882 0) scale(0.996264)"/>
     <use xlink:href="#CMR17-6d" transform="translate(721.919359 0) scale(0.996264)"/>
     <use xlink:href="#CMR17-70" transform="translate(798.838949 0) scale(0.996264)"/>
     <use xlink:href="#CMR17-61" transform="translate(849.734318 0) scale(0.996264)"/>
     <use xlink:href="#CMR17-72" transform="translate(895.424796 0) scale(0.996264)"/>
     <use xlink:href="#CMR17-69" transform="translate(930.705563 0) scale(0.996264)"/>
     <use xlink:href="#CMR17-73" transform="translate(955.576622 0) scale(0.996264)"/>
     <use xlink:href="#CMR17-6f" transform="translate(991.377959 0) scale(0.996264)"/>
     <use xlink:href="#CMR17-6e" transform="translate(1037.068437 0) scale(0.996264)"/>
     <use xlink:href="#CMR17-66" transform="translate(1118.039773 0) scale(0.996264)"/>
     <use xlink:href="#CMR17-6f" transform="translate(1145.513285 0) scale(0.996264)"/>
     <use xlink:href="#CMR17-72" transform="translate(1191.203762 0) scale(0.996264)"/>
     <use xlink:href="#CMR17-54" transform="translate(1256.560496 0) scale(0.996264)"/>
     <use xlink:href="#CMR17-72" transform="translate(1315.263122 0) scale(0.996264)"/>
     <use xlink:href="#CMR17-61" transform="translate(1350.543889 0) scale(0.996264)"/>
     <use xlink:href="#CMR17-6e" transform="translate(1396.234366 0) scale(0.996264)"/>
     <use xlink:href="#CMR17-73" transform="translate(1447.129736 0) scale(0.996264)"/>
     <use xlink:href="#CMR17-61" transform="translate(1482.931074 0) scale(0.996264)"/>
     <use xlink:href="#CMR17-63" transform="translate(1528.621551 0) scale(0.996264)"/>
     <use xlink:href="#CMR17-74" transform="translate(1569.107211 0) scale(0.996264)"/>
     <use xlink:href="#CMR17-69" transform="translate(1604.387979 0) scale(0.996264)"/>
     <use xlink:href="#CMR17-6f" transform="translate(1629.259038 0) scale(0.996264)"/>
     <use xlink:href="#CMR17-6e" transform="translate(1674.949515 0) scale(0.996264)"/>
     <use xlink:href="#CMR17-61" transform="translate(1725.844885 0) scale(0.996264)"/>
     <use xlink:href="#CMR17-6c" transform="translate(1771.535362 0) scale(0.996264)"/>
     <use xlink:href="#CMR17-72" transform="translate(1829.30364 0) scale(0.996264)"/>
     <use xlink:href="#CMR17-65" transform="translate(1864.584408 0) scale(0.996264)"/>
     <use xlink:href="#CMR17-74" transform="translate(1905.070068 0) scale(0.996264)"/>
     <use xlink:href="#CMR17-61" transform="translate(1940.350836 0) scale(0.996264)"/>
     <use xlink:href="#CMR17-69" transform="translate(1986.041313 0) scale(0.996264)"/>
     <use xlink:href="#CMR17-6c" transform="translate(2010.912371 0) scale(0.996264)"/>
     <use xlink:href="#CMR17-2e" transform="translate(2035.78343 0) scale(0.996264)"/>
     <use xlink:href="#CMR17-63" transform="translate(2060.654488 0) scale(0.996264)"/>
     <use xlink:href="#CMR17-73" transform="translate(2101.140149 0) scale(0.996264)"/>
     <use xlink:href="#CMR17-76" transform="translate(2136.941487 0) scale(0.996264)"/>
     <path d="M 1801.889049 0 
L 1829.30364 0 
L 1829.30364 0.3985 
L 1801.889049 0.3985 
L 1801.889049 0 
z
"/>
    </g>
   </g>
   <g id="legend_1">
    <g id="patch_7">
     <path d="M 195.384752 133.09507 
L 407.72 133.09507 
Q 409.72 133.09507 409.72 131.09507 
L 409.72 48.472 
Q 409.72 46.472 407.72 46.472 
L 195.384752 46.472 
Q 193.384752 46.472 193.384752 48.472 
L 193.384752 131.09507 
Q 193.384752 133.09507 195.384752 133.09507 
z
" style="fill: #ffffff; opacity: 0.8; stroke: #cccccc; stroke-linejoin: miter"/>
    </g>
    <g id="line2d_18">
     <path d="M 197.384752 53.972 
L 207.384752 53.972 
L 217.384752 53.972 
" style="fill: none; stroke: #1f77b4; stroke-width: 1.5; stroke-linecap: square"/>
    </g>
    <g id="text_15">
     <!-- cuFPMiner\_bit\_parquet -->
     <g transform="translate(225.384752 57.472) scale(0.1 -0.1)">
      <defs>
       <path id="CMR17-46" d="M 3482 4339 
L 326 4339 
L 326 4172 
C 768 4172 838 4172 838 3883 
L 838 450 
C 838 166 768 166 326 166 
L 326 0 
C 512 12 870 12 1069 12 
C 1331 12 1638 12 1901 0 
L 1901 166 
L 1760 166 
C 1274 166 1261 229 1261 456 
L 1261 2073 
L 1837 2073 
C 2432 2073 2490 1865 2490 1334 
L 2605 1334 
L 2605 2991 
L 2490 2991 
C 2490 2451 2432 2240 1837 2240 
L 1261 2240 
L 1261 3922 
C 1261 4140 1274 4172 1530 4172 
L 2355 4172 
C 3322 4172 3430 3774 3520 2920 
L 3635 2920 
L 3482 4339 
z
" transform="scale(0.015625)"/>
       <path id="CMR17-71" d="M 2630 2816 
L 2528 2816 
L 2336 2177 
C 2189 2519 1920 2816 1491 2816 
C 838 2816 211 2228 211 1376 
C 211 529 800 -64 1440 -64 
C 1933 -64 2208 316 2291 458 
L 2291 -834 
C 2291 -1081 2266 -1114 1856 -1114 
L 1856 -1280 
C 2010 -1268 2291 -1268 2458 -1268 
C 2624 -1268 2912 -1268 3066 -1280 
L 3066 -1114 
C 2656 -1114 2630 -1088 2630 -834 
L 2630 2816 
z
M 2304 871 
C 2304 594 2074 335 2054 316 
C 1856 90 1626 38 1472 38 
C 992 38 621 652 621 1369 
C 621 2125 1043 2700 1536 2700 
C 2048 2700 2304 2112 2304 1776 
L 2304 871 
z
" transform="scale(0.015625)"/>
      </defs>
      <use xlink:href="#CMR17-63" transform="scale(0.996264)"/>
      <use xlink:href="#CMR17-75" transform="translate(40.48566 0) scale(0.996264)"/>
      <use xlink:href="#CMR17-46" transform="translate(91.38103 0) scale(0.996264)"/>
      <use xlink:href="#CMR17-50" transform="translate(151.364877 0) scale(0.996264)"/>
      <use xlink:href="#CMR17-4d" transform="translate(213.951177 0) scale(0.996264)"/>
      <use xlink:href="#CMR17-69" transform="translate(298.638118 0) scale(0.996264)"/>
      <use xlink:href="#CMR17-6e" transform="translate(323.509176 0) scale(0.996264)"/>
      <use xlink:href="#CMR17-65" transform="translate(374.404546 0) scale(0.996264)"/>
      <use xlink:href="#CMR17-72" transform="translate(414.890207 0) scale(0.996264)"/>
      <use xlink:href="#CMR17-62" transform="translate(483.068194 0) scale(0.996264)"/>
      <use xlink:href="#CMR17-69" transform="translate(533.963564 0) scale(0.996264)"/>
      <use xlink:href="#CMR17-74" transform="translate(558.834622 0) scale(0.996264)"/>
      <use xlink:href="#CMR17-70" transform="translate(627.01261 0) scale(0.996264)"/>
      <use xlink:href="#CMR17-61" transform="translate(677.907979 0) scale(0.996264)"/>
      <use xlink:href="#CMR17-72" transform="translate(723.598456 0) scale(0.996264)"/>
      <use xlink:href="#CMR17-71" transform="translate(758.879224 0) scale(0.996264)"/>
      <use xlink:href="#CMR17-75" transform="translate(807.17214 0) scale(0.996264)"/>
      <use xlink:href="#CMR17-65" transform="translate(858.06751 0) scale(0.996264)"/>
      <use xlink:href="#CMR17-74" transform="translate(898.55317 0) scale(0.996264)"/>
      <path d="M 455.653604 0 
L 483.068194 0 
L 483.068194 0.3985 
L 455.653604 0.3985 
L 455.653604 0 
z
"/>
      <path d="M 599.598019 0 
L 627.01261 0 
L 627.01261 0.3985 
L 599.598019 0.3985 
L 599.598019 0 
z
"/>
     </g>
    </g>
    <g id="line2d_19">
     <path d="M 197.384752 67.909178 
L 207.384752 67.909178 
L 217.384752 67.909178 
" style="fill: none; stroke: #ff7f0e; stroke-width: 1.5; stroke-linecap: square"/>
    </g>
    <g id="text_16">
     <!-- cuFPMiner\_bit\_csv -->
     <g transform="translate(225.384752 71.409178) scale(0.1 -0.1)">
      <use xlink:href="#CMR17-63" transform="scale(0.996264)"/>
      <use xlink:href="#CMR17-75" transform="translate(40.48566 0) scale(0.996264)"/>
      <use xlink:href="#CMR17-46" transform="translate(91.38103 0) scale(0.996264)"/>
      <use xlink:href="#CMR17-50" transform="translate(151.364877 0) scale(0.996264)"/>
      <use xlink:href="#CMR17-4d" transform="translate(213.951177 0) scale(0.996264)"/>
      <use xlink:href="#CMR17-69" transform="translate(298.638118 0) scale(0.996264)"/>
      <use xlink:href="#CMR17-6e" transform="translate(323.509176 0) scale(0.996264)"/>
      <use xlink:href="#CMR17-65" transform="translate(374.404546 0) scale(0.996264)"/>
      <use xlink:href="#CMR17-72" transform="translate(414.890207 0) scale(0.996264)"/>
      <use xlink:href="#CMR17-62" transform="translate(483.068194 0) scale(0.996264)"/>
      <use xlink:href="#CMR17-69" transform="translate(533.963564 0) scale(0.996264)"/>
      <use xlink:href="#CMR17-74" transform="translate(558.834622 0) scale(0.996264)"/>
      <use xlink:href="#CMR17-63" transform="translate(627.01261 0) scale(0.996264)"/>
      <use xlink:href="#CMR17-73" transform="translate(667.49827 0) scale(0.996264)"/>
      <use xlink:href="#CMR17-76" transform="translate(703.299608 0) scale(0.996264)"/>
      <path d="M 455.653604 0 
L 483.068194 0 
L 483.068194 0.3985 
L 455.653604 0.3985 
L 455.653604 0 
z
"/>
      <path d="M 599.598019 0 
L 627.01261 0 
L 627.01261 0.3985 
L 599.598019 0.3985 
L 599.598019 0 
z
"/>
     </g>
    </g>
    <g id="line2d_20">
     <path d="M 197.384752 81.846357 
L 207.384752 81.846357 
L 217.384752 81.846357 
" style="fill: none; stroke: #2ca02c; stroke-width: 1.5; stroke-linecap: square"/>
    </g>
    <g id="text_17">
     <!-- cuFPMiner\_hash\_parquet -->
     <g transform="translate(225.384752 85.346357) scale(0.1 -0.1)">
      <defs>
       <path id="CMR17-68" d="M 2656 1954 
C 2656 2282 2592 2816 1837 2816 
C 1312 2816 1056 2392 979 2179 
L 973 2179 
L 973 4416 
L 211 4345 
L 211 4179 
C 589 4179 646 4141 646 3843 
L 646 443 
C 646 198 621 166 211 166 
L 211 0 
C 365 12 646 12 813 12 
C 979 12 1267 12 1421 0 
L 1421 166 
C 1011 166 986 192 986 443 
L 986 1678 
C 986 2269 1344 2713 1792 2713 
C 2266 2713 2317 2289 2317 1980 
L 2317 443 
C 2317 198 2291 166 1882 166 
L 1882 0 
C 2035 12 2317 12 2483 12 
C 2650 12 2938 12 3091 0 
L 3091 166 
C 2682 166 2656 192 2656 443 
L 2656 1954 
z
" transform="scale(0.015625)"/>
      </defs>
      <use xlink:href="#CMR17-63" transform="scale(0.996264)"/>
      <use xlink:href="#CMR17-75" transform="translate(40.48566 0) scale(0.996264)"/>
      <use xlink:href="#CMR17-46" transform="translate(91.38103 0) scale(0.996264)"/>
      <use xlink:href="#CMR17-50" transform="translate(151.364877 0) scale(0.996264)"/>
      <use xlink:href="#CMR17-4d" transform="translate(213.951177 0) scale(0.996264)"/>
      <use xlink:href="#CMR17-69" transform="translate(298.638118 0) scale(0.996264)"/>
      <use xlink:href="#CMR17-6e" transform="translate(323.509176 0) scale(0.996264)"/>
      <use xlink:href="#CMR17-65" transform="translate(374.404546 0) scale(0.996264)"/>
      <use xlink:href="#CMR17-72" transform="translate(414.890207 0) scale(0.996264)"/>
      <use xlink:href="#CMR17-68" transform="translate(483.068194 0) scale(0.996264)"/>
      <use xlink:href="#CMR17-61" transform="translate(533.963564 0) scale(0.996264)"/>
      <use xlink:href="#CMR17-73" transform="translate(579.654041 0) scale(0.996264)"/>
      <use xlink:href="#CMR17-68" transform="translate(615.455379 0) scale(0.996264)"/>
      <use xlink:href="#CMR17-70" transform="translate(699.247968 0) scale(0.996264)"/>
      <use xlink:href="#CMR17-61" transform="translate(750.143338 0) scale(0.996264)"/>
      <use xlink:href="#CMR17-72" transform="translate(795.833815 0) scale(0.996264)"/>
      <use xlink:href="#CMR17-71" transform="translate(831.114583 0) scale(0.996264)"/>
      <use xlink:href="#CMR17-75" transform="translate(879.407498 0) scale(0.996264)"/>
      <use xlink:href="#CMR17-65" transform="translate(930.302868 0) scale(0.996264)"/>
      <use xlink:href="#CMR17-74" transform="translate(970.788529 0) scale(0.996264)"/>
      <path d="M 455.653604 0 
L 483.068194 0 
L 483.068194 0.3985 
L 455.653604 0.3985 
L 455.653604 0 
z
"/>
      <path d="M 671.833378 0 
L 699.247968 0 
L 699.247968 0.3985 
L 671.833378 0.3985 
L 671.833378 0 
z
"/>
     </g>
    </g>
    <g id="line2d_21">
     <path d="M 197.384752 95.783535 
L 207.384752 95.783535 
L 217.384752 95.783535 
" style="fill: none; stroke: #d62728; stroke-width: 1.5; stroke-linecap: square"/>
    </g>
    <g id="text_18">
     <!-- cuFPMiner\_hash\_csv -->
     <g transform="translate(225.384752 99.283535) scale(0.1 -0.1)">
      <use xlink:href="#CMR17-63" transform="scale(0.996264)"/>
      <use xlink:href="#CMR17-75" transform="translate(40.48566 0) scale(0.996264)"/>
      <use xlink:href="#CMR17-46" transform="translate(91.38103 0) scale(0.996264)"/>
      <use xlink:href="#CMR17-50" transform="translate(151.364877 0) scale(0.996264)"/>
      <use xlink:href="#CMR17-4d" transform="translate(213.951177 0) scale(0.996264)"/>
      <use xlink:href="#CMR17-69" transform="translate(298.638118 0) scale(0.996264)"/>
      <use xlink:href="#CMR17-6e" transform="translate(323.509176 0) scale(0.996264)"/>
      <use xlink:href="#CMR17-65" transform="translate(374.404546 0) scale(0.996264)"/>
      <use xlink:href="#CMR17-72" transform="translate(414.890207 0) scale(0.996264)"/>
      <use xlink:href="#CMR17-68" transform="translate(483.068194 0) scale(0.996264)"/>
      <use xlink:href="#CMR17-61" transform="translate(533.963564 0) scale(0.996264)"/>
      <use xlink:href="#CMR17-73" transform="translate(579.654041 0) scale(0.996264)"/>
      <use xlink:href="#CMR17-68" transform="translate(615.455379 0) scale(0.996264)"/>
      <use xlink:href="#CMR17-63" transform="translate(699.247968 0) scale(0.996264)"/>
      <use xlink:href="#CMR17-73" transform="translate(739.733628 0) scale(0.996264)"/>
      <use xlink:href="#CMR17-76" transform="translate(775.534966 0) scale(0.996264)"/>
      <path d="M 455.653604 0 
L 483.068194 0 
L 483.068194 0.3985 
L 455.653604 0.3985 
L 455.653604 0 
z
"/>
      <path d="M 671.833378 0 
L 699.247968 0 
L 699.247968 0.3985 
L 671.833378 0.3985 
L 671.833378 0 
z
"/>
     </g>
    </g>
    <g id="line2d_22">
     <path d="M 197.384752 109.720713 
L 207.384752 109.720713 
L 217.384752 109.720713 
" style="fill: none; stroke: #9467bd; stroke-width: 1.5; stroke-linecap: square"/>
    </g>
    <g id="text_19">
     <!-- cuFPMiner\_hash\_parquet\_shared\_memory -->
     <g transform="translate(225.384752 113.220713) scale(0.1 -0.1)">
      <defs>
       <path id="CMR17-64" d="M 1869 4345 
L 1869 4179 
C 2246 4179 2304 4141 2304 3843 
L 2304 2371 
C 2278 2403 2016 2816 1498 2816 
C 845 2816 211 2228 211 1376 
C 211 529 806 -64 1434 -64 
C 1978 -64 2259 361 2291 406 
L 2291 -64 
L 3066 -13 
L 3066 154 
C 2688 154 2630 193 2630 503 
L 2630 4416 
L 1869 4345 
z
M 2291 762 
C 2291 568 2176 393 2029 264 
C 1811 70 1594 38 1472 38 
C 1286 38 621 135 621 1369 
C 621 2636 1363 2713 1530 2713 
C 1824 2713 2061 2545 2208 2313 
C 2291 2177 2291 2157 2291 2041 
L 2291 762 
z
" transform="scale(0.015625)"/>
       <path id="CMR17-79" d="M 2496 2183 
C 2656 2579 2944 2585 3034 2585 
L 3034 2752 
C 2912 2745 2752 2739 2630 2739 
C 2496 2739 2285 2739 2157 2752 
L 2157 2585 
C 2400 2566 2406 2384 2406 2332 
C 2406 2268 2394 2235 2362 2158 
L 1664 409 
L 902 2300 
C 870 2378 870 2423 870 2430 
C 870 2572 1018 2585 1171 2585 
L 1171 2752 
C 1018 2739 742 2739 582 2739 
C 410 2739 205 2739 64 2752 
L 64 2585 
C 410 2585 448 2553 531 2345 
L 1485 -31 
C 1197 -795 1030 -1242 627 -1242 
C 557 -1242 397 -1223 282 -1106 
C 429 -1093 493 -1002 493 -892 
C 493 -782 416 -685 288 -685 
C 147 -685 77 -782 77 -899 
C 77 -1158 339 -1344 627 -1344 
C 998 -1344 1229 -983 1357 -659 
L 2496 2183 
z
" transform="scale(0.015625)"/>
      </defs>
      <use xlink:href="#CMR17-63" transform="scale(0.996264)"/>
      <use xlink:href="#CMR17-75" transform="translate(40.48566 0) scale(0.996264)"/>
      <use xlink:href="#CMR17-46" transform="translate(91.38103 0) scale(0.996264)"/>
      <use xlink:href="#CMR17-50" transform="translate(151.364877 0) scale(0.996264)"/>
      <use xlink:href="#CMR17-4d" transform="translate(213.951177 0) scale(0.996264)"/>
      <use xlink:href="#CMR17-69" transform="translate(298.638118 0) scale(0.996264)"/>
      <use xlink:href="#CMR17-6e" transform="translate(323.509176 0) scale(0.996264)"/>
      <use xlink:href="#CMR17-65" transform="translate(374.404546 0) scale(0.996264)"/>
      <use xlink:href="#CMR17-72" transform="translate(414.890207 0) scale(0.996264)"/>
      <use xlink:href="#CMR17-68" transform="translate(483.068194 0) scale(0.996264)"/>
      <use xlink:href="#CMR17-61" transform="translate(533.963564 0) scale(0.996264)"/>
      <use xlink:href="#CMR17-73" transform="translate(579.654041 0) scale(0.996264)"/>
      <use xlink:href="#CMR17-68" transform="translate(615.455379 0) scale(0.996264)"/>
      <use xlink:href="#CMR17-70" transform="translate(699.247968 0) scale(0.996264)"/>
      <use xlink:href="#CMR17-61" transform="translate(750.143338 0) scale(0.996264)"/>
      <use xlink:href="#CMR17-72" transform="translate(795.833815 0) scale(0.996264)"/>
      <use xlink:href="#CMR17-71" transform="translate(831.114583 0) scale(0.996264)"/>
      <use xlink:href="#CMR17-75" transform="translate(879.407498 0) scale(0.996264)"/>
      <use xlink:href="#CMR17-65" transform="translate(930.302868 0) scale(0.996264)"/>
      <use xlink:href="#CMR17-74" transform="translate(970.788529 0) scale(0.996264)"/>
      <use xlink:href="#CMR17-73" transform="translate(1038.966516 0) scale(0.996264)"/>
      <use xlink:href="#CMR17-68" transform="translate(1074.767854 0) scale(0.996264)"/>
      <use xlink:href="#CMR17-61" transform="translate(1125.663223 0) scale(0.996264)"/>
      <use xlink:href="#CMR17-72" transform="translate(1171.3537 0) scale(0.996264)"/>
      <use xlink:href="#CMR17-65" transform="translate(1206.634468 0) scale(0.996264)"/>
      <use xlink:href="#CMR17-64" transform="translate(1247.120129 0) scale(0.996264)"/>
      <use xlink:href="#CMR17-6d" transform="translate(1330.912718 0) scale(0.996264)"/>
      <use xlink:href="#CMR17-65" transform="translate(1407.832308 0) scale(0.996264)"/>
      <use xlink:href="#CMR17-6d" transform="translate(1448.317968 0) scale(0.996264)"/>
      <use xlink:href="#CMR17-6f" transform="translate(1525.237558 0) scale(0.996264)"/>
      <use xlink:href="#CMR17-72" transform="translate(1570.928035 0) scale(0.996264)"/>
      <use xlink:href="#CMR17-79" transform="translate(1606.208803 0) scale(0.996264)"/>
      <path d="M 455.653604 0 
L 483.068194 0 
L 483.068194 0.3985 
L 455.653604 0.3985 
L 455.653604 0 
z
"/>
      <path d="M 671.833378 0 
L 699.247968 0 
L 699.247968 0.3985 
L 671.833378 0.3985 
L 671.833378 0 
z
"/>
      <path d="M 1011.551926 0 
L 1038.966516 0 
L 1038.966516 0.3985 
L 1011.551926 0.3985 
L 1011.551926 0 
z
"/>
      <path d="M 1303.498128 0 
L 1330.912718 0 
L 1330.912718 0.3985 
L 1303.498128 0.3985 
L 1303.498128 0 
z
"/>
     </g>
    </g>
    <g id="line2d_23">
     <path d="M 197.384752 123.657892 
L 207.384752 123.657892 
L 217.384752 123.657892 
" style="fill: none; stroke: #8c564b; stroke-width: 1.5; stroke-linecap: square"/>
    </g>
    <g id="text_20">
     <!-- cuFPMiner\_hash\_csv\_shared\_memory -->
     <g transform="translate(225.384752 127.157892) scale(0.1 -0.1)">
      <use xlink:href="#CMR17-63" transform="scale(0.996264)"/>
      <use xlink:href="#CMR17-75" transform="translate(40.48566 0) scale(0.996264)"/>
      <use xlink:href="#CMR17-46" transform="translate(91.38103 0) scale(0.996264)"/>
      <use xlink:href="#CMR17-50" transform="translate(151.364877 0) scale(0.996264)"/>
      <use xlink:href="#CMR17-4d" transform="translate(213.951177 0) scale(0.996264)"/>
      <use xlink:href="#CMR17-69" transform="translate(298.638118 0) scale(0.996264)"/>
      <use xlink:href="#CMR17-6e" transform="translate(323.509176 0) scale(0.996264)"/>
      <use xlink:href="#CMR17-65" transform="translate(374.404546 0) scale(0.996264)"/>
      <use xlink:href="#CMR17-72" transform="translate(414.890207 0) scale(0.996264)"/>
      <use xlink:href="#CMR17-68" transform="translate(483.068194 0) scale(0.996264)"/>
      <use xlink:href="#CMR17-61" transform="translate(533.963564 0) scale(0.996264)"/>
      <use xlink:href="#CMR17-73" transform="translate(579.654041 0) scale(0.996264)"/>
      <use xlink:href="#CMR17-68" transform="translate(615.455379 0) scale(0.996264)"/>
      <use xlink:href="#CMR17-63" transform="translate(699.247968 0) scale(0.996264)"/>
      <use xlink:href="#CMR17-73" transform="translate(739.733628 0) scale(0.996264)"/>
      <use xlink:href="#CMR17-76" transform="translate(775.534966 0) scale(0.996264)"/>
      <use xlink:href="#CMR17-73" transform="translate(856.725101 0) scale(0.996264)"/>
      <use xlink:href="#CMR17-68" transform="translate(892.526439 0) scale(0.996264)"/>
      <use xlink:href="#CMR17-61" transform="translate(943.421809 0) scale(0.996264)"/>
      <use xlink:href="#CMR17-72" transform="translate(989.112286 0) scale(0.996264)"/>
      <use xlink:href="#CMR17-65" transform="translate(1024.393054 0) scale(0.996264)"/>
      <use xlink:href="#CMR17-64" transform="translate(1064.878714 0) scale(0.996264)"/>
      <use xlink:href="#CMR17-6d" transform="translate(1148.671303 0) scale(0.996264)"/>
      <use xlink:href="#CMR17-65" transform="translate(1225.590893 0) scale(0.996264)"/>
      <use xlink:href="#CMR17-6d" transform="translate(1266.076554 0) scale(0.996264)"/>
      <use xlink:href="#CMR17-6f" transform="translate(1342.996144 0) scale(0.996264)"/>
      <use xlink:href="#CMR17-72" transform="translate(1388.686621 0) scale(0.996264)"/>
      <use xlink:href="#CMR17-79" transform="translate(1423.967389 0) scale(0.996264)"/>
      <path d="M 455.653604 0 
L 483.068194 0 
L 483.068194 0.3985 
L 455.653604 0.3985 
L 455.653604 0 
z
"/>
      <path d="M 671.833378 0 
L 699.247968 0 
L 699.247968 0.3985 
L 671.833378 0.3985 
L 671.833378 0 
z
"/>
      <path d="M 829.310511 0 
L 856.725101 0 
L 856.725101 0.3985 
L 829.310511 0.3985 
L 829.310511 0 
z
"/>
      <path d="M 1121.256713 0 
L 1148.671303 0 
L 1148.671303 0.3985 
L 1121.256713 0.3985 
L 1121.256713 0 
z
"/>
     </g>
    </g>
   </g>
  </g>
 </g>
 <defs>
  <clipPath id="p30b217193f">
   <rect x="57.6" y="41.472" width="357.12" height="266.112"/>
  </clipPath>
 </defs>
</svg>
